<svg xmlns="http://www.w3.org/2000/svg" fill="none" width="220" height="40"><defs><mask id="a"><rect width="220" height="40" rx="20" fill="#FFF" style="mix-blend-mode:passthrough"/></mask></defs><g style="mix-blend-mode:passthrough" mask="url(#a)"><rect width="220" height="40" rx="20" fill="#E2BB7D" style="mix-blend-mode:passthrough"/><path d="M39.323 24.64a42.053 42.053 0 0 0 3.38-1.02v3.937h1.646v-1.156l.77 1.25c1.569-.833 2.865-1.875 3.886-3.088a21.003 21.003 0 0 0 3.328 3.218l1.151-1.364a19.241 19.241 0 0 1-3.453-3.297c1.073-1.792 1.677-3.901 1.807-6.365h1.22v-1.65h-4.949a26.79 26.79 0 0 0 .433-2l-1.677-.287c-.433 2.75-1.266 4.974-2.516 6.656v-6.547h-1.646v9.094a36.89 36.89 0 0 1-1.807.62v-8.365H39.26v8.448c0 .224-.14.396-.416.51l.479 1.407Zm8.276-7.885h2.656c-.114 1.854-.547 3.505-1.281 4.912a18.318 18.318 0 0 1-1.854-3.714c.156-.385.318-.781.479-1.198Zm-1.458 2.99a19.212 19.212 0 0 0 1.843 3.442c-.916 1.151-2.13 2.094-3.635 2.834v-6.453l.995 1.234c.27-.318.541-.672.797-1.057Zm8.672-6.193v1.636h5.921v12.479h1.683v-8.735c1.307.672 2.942 1.646 4.911 2.896l1.005-1.505a75.297 75.297 0 0 0-5.916-3.188v-1.948h6.75v-1.635H54.812Zm21.505-.193v1.474h8.833V13.36h-8.833Zm.833 2.224v3.797h7.135v-3.797h-7.135Zm5.568 2.485h-4v-1.172h4v1.172Zm2.27 2.156h-8.578v7.458h1.573v-.557h5.438v.557h1.568v-7.458Zm-7.005 5.458v-1.375h1.933v1.375h-1.933Zm3.5 0v-1.375h1.938v1.375h-1.938Zm-3.5-2.75v-1.328h1.933v1.328h-1.933Zm3.5-1.328h1.938v1.328h-1.938v-1.328Zm-8.833.047v6.016h1.635V21.41c.37.334.735.735 1.12 1.198l.912-1.375a12.937 12.937 0 0 0-2.016-1.552c.802-1.12 1.375-2.24 1.76-3.39V14.88h-1.536c-.161-.656-.401-1.375-.687-2.156l-1.568.448c.255.542.479 1.12.687 1.708h-2.015v1.604h3.453c-.688 1.584-1.948 3.214-3.807 4.88l.53 1.756c.542-.48 1.053-.974 1.532-1.469Zm14.208-4.656v1.614h2.933v.032c-.724 1.599-1.844 3.041-3.344 4.323l.766 1.968a17.454 17.454 0 0 0 2.578-3.536v6.27h1.692v-6.895c.547.61 1.22 1.406 2 2.416l.98-1.505c-1.01-.99-2-1.87-2.98-2.672v-.4h2.834v-1.615h-2.834v-1.938c.912-.224 1.808-.51 2.672-.833l-.812-1.375c-1.584.625-3.714 1.057-6.386 1.281l.51 1.537c.772-.063 1.553-.146 2.324-.271v1.599h-2.933Zm8.454-2.64v9.775h1.661v-9.776h-1.662ZM99.02 27.52c1.12 0 1.682-.589 1.682-1.76V12.91h-1.698v12.417c0 .448-.192.672-.557.672-.688 0-1.412-.031-2.162-.094l.355 1.615h2.38Zm6.083-3.933c-.4 0-.724.11-.963.35-.256.224-.386.53-.386.911 0 .354.115.656.354.896.24.24.526.37.88.37.178 0 .303-.032.402-.063 0 .38-.13.75-.417 1.136a2.63 2.63 0 0 1-1.104.765v1.057c.833-.24 1.505-.672 2-1.297a3.61 3.61 0 0 0 .734-2.223c0-.558-.14-1.021-.416-1.375a1.343 1.343 0 0 0-1.084-.526Zm15.438-5.442v4.224h3.76c-.047.099-.094.208-.161.338-.834 1.454-2.61 2.704-5.36 3.724l1.073 1.297c3.136-1.213 5.104-2.75 5.922-4.573.11-.26.224-.515.318-.786h.448v3.12c0 1.297.562 1.953 1.713 1.953h3.198c.578 0 1.01-.146 1.281-.433.287-.317.495-1.28.625-2.895l-1.583-.495c-.031 1.057-.115 1.692-.208 1.9-.1.194-.24.308-.433.308h-2.37c-.385 0-.557-.24-.557-.687V22.37h3.615v-5.266h-3.552c.51-.51 1.042-1.088 1.568-1.76v-1.245h-5.266c.208-.292.417-.61.64-.948l-1.676-.38c-1.38 1.984-2.98 3.52-4.803 4.588l1.073 1.282c.24-.157.48-.334.735-.495Zm5.63-1.042h-4.318c.51-.463 1.026-.958 1.521-1.5h4.302a21.458 21.458 0 0 1-1.505 1.5Zm4.036 3.698h-3.666c.13-.672.224-1.375.255-2.146h3.411v2.146Zm-5.38 0h-2.656v-2.146h2.948c-.052.771-.146 1.49-.292 2.146Zm12.896-4.016h1.651a6.107 6.107 0 0 1-.146.704h-1.698l.193-.704Zm3.266 0h1.968v.704h-2.062c.031-.224.062-.448.094-.704Zm3.583 0h3.328V13.49h-3.328v-.657h-1.615v.657h-1.953v-.657h-1.614v.657h-3.506v1.328h3.506v.703h-3.026l-.641 3.219h2.818l-.078.078c-.547.526-1.62.974-3.235 1.328l.833 1.297c.318-.078.625-.162.928-.256v3.901h1.645v-3.02h7.141v3.02h1.662v-4.494h-8.912c.479-.256.88-.526 1.198-.834.292-.302.547-.64.755-1.02h2.479v1.614h1.615V18.74h2.609c0 .192-.047.333-.109.463-.083.094-.323.14-.724.14-.271 0-.557-.015-.865-.046l.308 1.135c.255.016.51.032.765.032.943-.016 1.552-.204 1.808-.558.26-.354.401-1.15.401-2.416h-4.193v-.704Zm-3.568-1.968h1.953v.703h-1.953v-.703Zm3.568 0h1.776v.703h-1.776v-.703Zm-1.359 9.922-.849 1.244a34.082 34.082 0 0 1 5.604 1.828l.896-1.395c-1.698-.672-3.589-1.23-5.651-1.677Zm-1.886-2.339c-.114 1.344-.516 2.292-1.219 2.849-.802.547-2.448.88-4.942.98l.672 1.5c3.02-.225 4.927-.735 5.713-1.5.734-.61 1.214-1.829 1.438-3.668l-1.662-.161Zm10.349-8.734v1.614h2.771v3.406c0 .1-.016.178-.016.276h-3.573v1.615h3.459c-.13 1.089-.339 2.031-.625 2.834-.448 1.12-1.313 2.062-2.61 2.817l.917 1.422c1.422-.719 2.448-1.76 3.068-3.104.468-1.073.786-2.401.948-3.969h4.14v6.865h1.683v-6.865h3.312v-1.614h-3.312V15.28h2.51v-1.614h-12.672Zm4.464 1.614h4.015v3.682h-4.031c0-.098.016-.177.016-.276v-3.406Zm12.083-2.286-1.141 1.073c1.157.927 2.052 1.807 2.672 2.604l1.172-1.151c-.739-.834-1.651-1.677-2.703-2.526Zm9.12 14.417h3.661l.401-1.652c-.432.037-1.057.068-1.87.1-.833 0-1.635.015-2.432.015-1.25 0-2.323-.016-3.25-.031-.943-.032-1.646-.162-2.114-.401-.381-.209-.75-.526-1.12-.943l-.172-.177V18.24h-3.667v1.536h2.115v4.386c-.641.354-1.344 1.166-2.146 2.447l1.229 1.136c.802-1.438 1.349-2.14 1.667-2.14.177 0 .37.124.594.395.479.547 1.036.917 1.677 1.104.672.162 1.521.26 2.562.276 1.021.016 1.985.032 2.865.032Zm-2.834-12.724-.849.833c.61.338 1.151.672 1.651.995h-3.552v8.687h1.568v-2.61h2.078v2.595h1.537v-2.594h2.146v.672c0 .338-.178.51-.532.51l-1.104-.047.37 1.375h1.198c1.088 0 1.635-.51 1.635-1.5v-7.088h-3.234l-.031-.032a16.659 16.659 0 0 0 2.942-2.005v-1.166h-8.849v1.374h3.026Zm1.87 1.026a30.657 30.657 0 0 0-1.5-1.027h3.198c-.526.37-1.088.709-1.698 1.027Zm-3.052 4.526h2.078v1.01h-2.078v-1.01Zm3.615 0h2.146v1.01h-2.146v-1.01Zm2.146-1.344h-2.146V17.89h2.146v1.005Zm-3.683 0h-2.078V17.89h2.078v1.005Z" fill="#FFF" style="mix-blend-mode:passthrough"/></g></svg>