<svg xmlns="http://www.w3.org/2000/svg" xmlns:xlink="http://www.w3.org/1999/xlink" fill="none" version="1.1" width="16.751953125" height="16.74267578125" viewBox="0 0 16.751953125 16.74267578125">
  <g style="mix-blend-mode:passthrough">
    <g style="mix-blend-mode:passthrough">
      <path d="M11.793459375,5.99539L10.725419375000001,5.99539C10.825189375,5.74573,10.935669375,5.40125,11.037769375,4.99539C11.233299375,4.21814,11.398079375,3.21577,11.398079375,2.22318C11.398079375,0.712283,10.124059375,-0.0677215,8.999689374999999,0.00461342C7.873759375,0.0770481,7.130289375,0.843066,7.068529375,1.99835C7.008029375,3.13006,6.689429375,4.2243,6.176179375,5.04782C5.138979375,6.71202,3.4686283749999998,6.74113,3.037109375,6.74113L3.037109375,16.7428Q3.733032375,16.7426,4.037109375,16.7426Q11.587989375,16.7411,12.910429375,16.7411C14.316009375,16.7411,15.059709375,16.1899,15.421909375,14.5006C15.784209375,12.8114,16.489009375000002,10.1272,16.712009375,8.67781C16.935009375,7.22837,16.224309375,5.99539,14.636809375,5.99539L11.793459375,5.99539ZM4.037109375,15.7426L12.910259375,15.7411Q13.619809375,15.7411,13.906409375,15.4953Q14.248909375,15.2016,14.444209375,14.2909Q14.577109375,13.671,14.935909375,12.1583Q15.587109375,9.41272,15.723609375,8.52574Q15.836509375,7.79165,15.538509375,7.37279Q15.270009375,6.99539,14.636809375,6.99539L12.175749375,6.99539L10.725419375000001,6.99539Q10.626929375,6.99539,10.530329375,6.97617Q10.433729375,6.95696,10.342729375000001,6.91927Q10.251739375,6.88158,10.169849375,6.82686Q10.087959375,6.77214,10.018309375000001,6.7025Q9.948669375,6.63285,9.893949375,6.55096Q9.839229375,6.46907,9.801539375,6.37807Q9.763849375,6.28708,9.744629374999999,6.19048Q9.725419375000001,6.09388,9.725419375000001,5.99539Q9.725419375000001,5.80297,9.796829375,5.62428Q10.019029374999999,5.06828,10.189999375,4.20803Q10.398079375,3.16104,10.398079375,2.22318Q10.398079375,1.62956,9.988059374999999,1.29478Q9.588809375,0.96878,9.063889374999999,1.00255Q8.119949375000001,1.06328,8.067099375,2.05174Q7.958759375,4.07827,7.0248493750000005,5.57674Q6.177099375,6.93696,4.716679375,7.45999Q4.386579375,7.57821,4.037109375,7.64672L4.037109375,15.7426Z" fill-rule="nonzero" fill="#f21313" fill-opacity="1" />
    </g>
    <g style="mix-blend-mode:passthrough">
      <path d="M1,15.741127967834473L1,7.741127967834473L3.03051,7.741127967834473L3.03051,15.741127967834473L1,15.741127967834473ZM3.03051,16.741127967834473L1,16.741127967834473C0.447715,16.741127967834473,0,16.293417967834472,0,15.741127967834473L0,7.741127967834473C0,7.188842967834472,0.447715,6.741127967834473,1,6.741127967834473L4.03051,6.741127967834473L4.03051,16.741127967834473L3.03051,16.741127967834473Z" fill-rule="nonzero" fill="#f21313" fill-opacity="1" />
    </g>
  </g>
</svg>