<svg xmlns="http://www.w3.org/2000/svg" fill="none" width="16" height="16">
  <defs>
    <clipPath id="a">
      <rect width="16" height="16" rx="0"/>
    </clipPath>
  </defs>
  <g style="mix-blend-mode:passthrough" clip-path="url(#a)">
    <path
      d="M10.5 3.5h-7v9h9V5.521l1-1V13q0 .05-.01.098t-.028.093q-.019.046-.046.087-.028.04-.062.076-.035.034-.076.062-.041.027-.087.046-.045.019-.094.028-.048.01-.097.01H3q-.05 0-.098-.01t-.093-.028q-.046-.019-.087-.046-.04-.028-.076-.062-.034-.035-.062-.076-.027-.041-.046-.087-.019-.045-.028-.094Q2.5 13.05 2.5 13V3q0-.05.01-.098t.028-.093q.019-.046.046-.087.028-.04.062-.076.035-.034.076-.062.041-.027.087-.046.045-.019.093-.028.049-.01.098-.01h8.5l-1 1Z"
      fill-rule="evenodd" fill="#9AA1B2" style="mix-blend-mode:passthrough"/>
    <path d="m13.803 1.5.023 8.877.5.5.5-.5-.023-8.877h-1Z" fill="#9AA1B2" transform="rotate(45 13.803 1.5)"
          style="mix-blend-mode:passthrough"/>
  </g>
</svg>
